<mxfile host="app.diagrams.net" modified="2024-03-05T01:58:19.231Z" agent="Mozilla/5.0 (Macintosh; Intel Mac OS X 10_15_7) AppleWebKit/537.36 (KHTML, like Gecko) Chrome/122.0.0.0 Safari/537.36" etag="7hJsl86kOpfnR27AJrZy" version="24.0.0" type="github">
  <diagram name="第 1 页" id="hCdCLGGOKBdnfRa-VDUK">
    <mxGraphModel dx="1259" dy="654" grid="1" gridSize="10" guides="1" tooltips="1" connect="1" arrows="1" fold="1" page="1" pageScale="1" pageWidth="1654" pageHeight="2336" math="0" shadow="0">
      <root>
        <mxCell id="0" />
        <mxCell id="1" parent="0" />
        <mxCell id="JgcL3dV7gqnGYzthLL8J-8" value="" style="edgeStyle=orthogonalEdgeStyle;rounded=0;orthogonalLoop=1;jettySize=auto;html=1;" edge="1" parent="1" source="JgcL3dV7gqnGYzthLL8J-1" target="JgcL3dV7gqnGYzthLL8J-2">
          <mxGeometry relative="1" as="geometry" />
        </mxCell>
        <mxCell id="JgcL3dV7gqnGYzthLL8J-1" value="开始" style="strokeWidth=2;html=1;shape=mxgraph.flowchart.terminator;whiteSpace=wrap;fillColor=#ffe6cc;strokeColor=#d79b00;" vertex="1" parent="1">
          <mxGeometry x="160" y="160" width="100" height="60" as="geometry" />
        </mxCell>
        <mxCell id="JgcL3dV7gqnGYzthLL8J-9" value="" style="edgeStyle=orthogonalEdgeStyle;rounded=0;orthogonalLoop=1;jettySize=auto;html=1;" edge="1" parent="1" source="JgcL3dV7gqnGYzthLL8J-2" target="JgcL3dV7gqnGYzthLL8J-3">
          <mxGeometry relative="1" as="geometry" />
        </mxCell>
        <mxCell id="JgcL3dV7gqnGYzthLL8J-24" value="" style="edgeStyle=orthogonalEdgeStyle;rounded=0;orthogonalLoop=1;jettySize=auto;html=1;" edge="1" parent="1" source="JgcL3dV7gqnGYzthLL8J-2" target="JgcL3dV7gqnGYzthLL8J-21">
          <mxGeometry relative="1" as="geometry" />
        </mxCell>
        <mxCell id="JgcL3dV7gqnGYzthLL8J-2" value="参数校验和验签" style="rhombus;whiteSpace=wrap;html=1;fillColor=#f8cecc;strokeColor=#b85450;" vertex="1" parent="1">
          <mxGeometry x="320" y="150" width="80" height="80" as="geometry" />
        </mxCell>
        <mxCell id="JgcL3dV7gqnGYzthLL8J-10" value="" style="edgeStyle=orthogonalEdgeStyle;rounded=0;orthogonalLoop=1;jettySize=auto;html=1;" edge="1" parent="1" source="JgcL3dV7gqnGYzthLL8J-3" target="JgcL3dV7gqnGYzthLL8J-4">
          <mxGeometry relative="1" as="geometry" />
        </mxCell>
        <mxCell id="JgcL3dV7gqnGYzthLL8J-3" value="加锁 查询业务订单" style="rounded=0;whiteSpace=wrap;html=1;fillColor=#ffe6cc;strokeColor=#d79b00;" vertex="1" parent="1">
          <mxGeometry x="480" y="160" width="120" height="60" as="geometry" />
        </mxCell>
        <mxCell id="JgcL3dV7gqnGYzthLL8J-11" value="" style="edgeStyle=orthogonalEdgeStyle;rounded=0;orthogonalLoop=1;jettySize=auto;html=1;" edge="1" parent="1" source="JgcL3dV7gqnGYzthLL8J-4" target="JgcL3dV7gqnGYzthLL8J-5">
          <mxGeometry relative="1" as="geometry" />
        </mxCell>
        <mxCell id="JgcL3dV7gqnGYzthLL8J-25" value="" style="edgeStyle=orthogonalEdgeStyle;rounded=0;orthogonalLoop=1;jettySize=auto;html=1;" edge="1" parent="1" source="JgcL3dV7gqnGYzthLL8J-4" target="JgcL3dV7gqnGYzthLL8J-22">
          <mxGeometry relative="1" as="geometry" />
        </mxCell>
        <mxCell id="JgcL3dV7gqnGYzthLL8J-4" value="是否待领取" style="rhombus;whiteSpace=wrap;html=1;fillColor=#f8cecc;strokeColor=#b85450;" vertex="1" parent="1">
          <mxGeometry x="660" y="150" width="80" height="80" as="geometry" />
        </mxCell>
        <mxCell id="JgcL3dV7gqnGYzthLL8J-12" value="" style="edgeStyle=orthogonalEdgeStyle;rounded=0;orthogonalLoop=1;jettySize=auto;html=1;" edge="1" parent="1" source="JgcL3dV7gqnGYzthLL8J-5" target="JgcL3dV7gqnGYzthLL8J-6">
          <mxGeometry relative="1" as="geometry" />
        </mxCell>
        <mxCell id="JgcL3dV7gqnGYzthLL8J-5" value="业务订单和原始订单修改身份信息" style="rounded=0;whiteSpace=wrap;html=1;fillColor=#ffe6cc;strokeColor=#d79b00;" vertex="1" parent="1">
          <mxGeometry x="810" y="160" width="120" height="60" as="geometry" />
        </mxCell>
        <mxCell id="JgcL3dV7gqnGYzthLL8J-26" value="" style="edgeStyle=orthogonalEdgeStyle;rounded=0;orthogonalLoop=1;jettySize=auto;html=1;" edge="1" parent="1" source="JgcL3dV7gqnGYzthLL8J-6" target="JgcL3dV7gqnGYzthLL8J-23">
          <mxGeometry relative="1" as="geometry" />
        </mxCell>
        <mxCell id="JgcL3dV7gqnGYzthLL8J-6" value="发送事件" style="rounded=0;whiteSpace=wrap;html=1;fillColor=#ffe6cc;strokeColor=#d79b00;" vertex="1" parent="1">
          <mxGeometry x="1010" y="160" width="120" height="60" as="geometry" />
        </mxCell>
        <mxCell id="JgcL3dV7gqnGYzthLL8J-7" value="结束" style="strokeWidth=2;html=1;shape=mxgraph.flowchart.terminator;whiteSpace=wrap;fillColor=#ffe6cc;strokeColor=#d79b00;" vertex="1" parent="1">
          <mxGeometry x="160" y="450" width="100" height="60" as="geometry" />
        </mxCell>
        <mxCell id="JgcL3dV7gqnGYzthLL8J-18" value="" style="endArrow=classic;html=1;rounded=0;" edge="1" parent="1" target="JgcL3dV7gqnGYzthLL8J-7">
          <mxGeometry width="50" height="50" relative="1" as="geometry">
            <mxPoint x="1070" y="480" as="sourcePoint" />
            <mxPoint x="700" y="350" as="targetPoint" />
          </mxGeometry>
        </mxCell>
        <mxCell id="JgcL3dV7gqnGYzthLL8J-27" style="edgeStyle=orthogonalEdgeStyle;rounded=0;orthogonalLoop=1;jettySize=auto;html=1;" edge="1" parent="1" source="JgcL3dV7gqnGYzthLL8J-21">
          <mxGeometry relative="1" as="geometry">
            <mxPoint x="360" y="480" as="targetPoint" />
          </mxGeometry>
        </mxCell>
        <mxCell id="JgcL3dV7gqnGYzthLL8J-21" value="返回验签失败" style="rounded=0;whiteSpace=wrap;html=1;fillColor=#ffe6cc;strokeColor=#d79b00;" vertex="1" parent="1">
          <mxGeometry x="300" y="310" width="120" height="60" as="geometry" />
        </mxCell>
        <mxCell id="JgcL3dV7gqnGYzthLL8J-28" style="edgeStyle=orthogonalEdgeStyle;rounded=0;orthogonalLoop=1;jettySize=auto;html=1;" edge="1" parent="1" source="JgcL3dV7gqnGYzthLL8J-22">
          <mxGeometry relative="1" as="geometry">
            <mxPoint x="700" y="480" as="targetPoint" />
          </mxGeometry>
        </mxCell>
        <mxCell id="JgcL3dV7gqnGYzthLL8J-22" value="返回修改失败" style="rounded=0;whiteSpace=wrap;html=1;fillColor=#ffe6cc;strokeColor=#d79b00;" vertex="1" parent="1">
          <mxGeometry x="640" y="310" width="120" height="60" as="geometry" />
        </mxCell>
        <mxCell id="JgcL3dV7gqnGYzthLL8J-29" style="edgeStyle=orthogonalEdgeStyle;rounded=0;orthogonalLoop=1;jettySize=auto;html=1;endArrow=none;endFill=0;" edge="1" parent="1" source="JgcL3dV7gqnGYzthLL8J-23">
          <mxGeometry relative="1" as="geometry">
            <mxPoint x="1070" y="480" as="targetPoint" />
          </mxGeometry>
        </mxCell>
        <mxCell id="JgcL3dV7gqnGYzthLL8J-23" value="返回修改成功" style="rounded=0;whiteSpace=wrap;html=1;fillColor=#ffe6cc;strokeColor=#d79b00;" vertex="1" parent="1">
          <mxGeometry x="1010" y="310" width="120" height="60" as="geometry" />
        </mxCell>
        <mxCell id="JgcL3dV7gqnGYzthLL8J-30" value="1、投放方式变更事件" style="rounded=0;whiteSpace=wrap;html=1;fillColor=#fff2cc;strokeColor=#d6b656;" vertex="1" parent="1">
          <mxGeometry x="1140" y="120" width="130" height="130" as="geometry" />
        </mxCell>
      </root>
    </mxGraphModel>
  </diagram>
</mxfile>
